<?xml version="1.0" standalone="no"?>
<!DOCTYPE svg PUBLIC "-//W3C//DTD SVG 20010904//EN"
 "http://www.w3.org/TR/2001/REC-SVG-20010904/DTD/svg10.dtd">
<svg version="1.0" xmlns="http://www.w3.org/2000/svg"
 width="1024.000000pt" height="1024.000000pt" viewBox="0 0 1024.000000 1024.000000"
 preserveAspectRatio="xMidYMid meet">

<g transform="translate(0.000000,1024.000000) scale(0.100000,-0.100000)"
fill="#000000" stroke="none">
<path d="M4063 10083 c-145 -2 -263 -7 -263 -12 0 -23 173 -143 290 -202 l84
-42 -50 -13 c-100 -25 -263 -100 -574 -264 l-175 -91 -160 4 c-106 3 -177 10
-210 21 -27 8 -51 14 -53 11 -10 -9 61 -43 177 -82 l126 -43 -56 0 c-143 0
-330 51 -424 115 -75 52 -83 42 -36 -40 37 -65 133 -156 200 -190 l53 -26 -78
-41 c-124 -63 -212 -126 -299 -213 -70 -70 -145 -178 -133 -191 3 -2 26 10 52
26 78 50 176 96 266 124 47 15 91 30 99 32 8 3 -26 -37 -76 -89 -206 -213
-324 -418 -339 -590 -5 -48 -16 -90 -34 -127 -52 -103 -96 -299 -71 -314 6 -4
22 12 37 36 65 105 242 270 345 323 l29 16 -15 -38 c-56 -144 -70 -353 -35
-522 11 -56 16 -101 11 -110 -26 -49 -51 -205 -51 -313 0 -154 39 -290 55
-191 12 71 56 203 83 247 26 44 42 57 42 35 0 -6 19 -41 43 -77 24 -37 51 -87
59 -112 95 -266 130 -368 134 -385 3 -16 -7 -25 -55 -48 -76 -35 -134 -94
-176 -177 -48 -96 -60 -158 -59 -295 2 -132 25 -231 84 -362 81 -178 242 -357
386 -429 77 -38 81 -39 192 -40 l114 -1 42 -84 c86 -171 209 -332 382 -499
185 -179 389 -321 651 -453 l123 -62 0 -115 c0 -63 -3 -125 -6 -138 -4 -14
-30 -36 -67 -58 -204 -119 -424 -342 -559 -564 l-37 -62 -213 -73 c-362 -123
-502 -187 -575 -263 -48 -49 -161 -204 -240 -328 -37 -58 -52 -74 -77 -80
-109 -23 -183 -113 -204 -247 -7 -45 -41 -101 -254 -422 -135 -203 -310 -462
-388 -575 -79 -113 -187 -269 -241 -347 -54 -78 -118 -168 -144 -200 -26 -31
-60 -83 -76 -115 -16 -32 -34 -58 -40 -58 -7 0 -53 -20 -105 -46 -74 -36 -105
-58 -157 -113 -82 -88 -155 -232 -196 -388 l-29 -113 1001 0 c834 1 1009 3
1042 15 35 12 38 12 20 -1 -17 -13 24 -14 345 -12 l365 3 -1 32 c-1 18 2 30 7
27 11 -6 10 22 -2 56 -8 24 -8 24 -6 -5 2 -24 -2 -31 -20 -33 -21 -3 -23 1
-23 37 0 34 -3 41 -20 41 -13 0 -20 7 -20 20 0 13 -7 20 -20 20 -13 0 -20 7
-20 20 0 13 -7 20 -20 20 -13 0 -20 7 -20 20 0 17 -7 20 -40 20 -33 0 -40 3
-40 20 0 13 -7 20 -20 20 -13 0 -20 -7 -20 -20 0 -13 -7 -20 -20 -20 -11 0
-20 5 -20 10 0 6 -9 10 -20 10 -11 0 -20 5 -20 10 0 6 -9 10 -20 10 -11 0 -20
5 -20 11 0 7 -10 9 -24 7 -20 -4 -23 -1 -22 19 0 12 4 23 7 23 4 0 10 7 13 16
3 9 2 12 -5 8 -6 -3 -2 11 9 32 10 22 25 62 32 89 7 28 24 63 37 78 13 16 23
33 23 38 0 6 6 7 13 3 6 -4 9 -4 5 0 -3 4 6 40 20 79 22 60 26 90 27 182 1 84
5 118 19 143 23 45 14 51 -14 10 -19 -29 -21 -30 -16 -8 12 51 18 139 12 166
l-7 27 -27 -39 c-15 -21 -27 -42 -28 -46 -1 -5 -2 -12 -3 -17 0 -5 -54 8 -118
29 -65 21 -221 66 -348 100 -126 34 -238 63 -247 66 -10 3 -18 1 -18 -5 0 -14
81 -42 260 -91 208 -56 377 -108 421 -131 35 -17 70 -72 55 -86 -3 -3 -6 0 -6
8 0 25 -20 -13 -20 -38 0 -13 -4 -23 -10 -23 -5 0 -10 -6 -10 -13 0 -7 -8 -20
-17 -28 -10 -9 -23 -24 -28 -33 -10 -17 -101 -49 -137 -48 -10 1 -18 -5 -18
-11 0 -8 -3 -7 -9 2 -5 8 -14 10 -21 6 -10 -6 -9 -11 5 -22 14 -9 15 -13 4
-13 -8 0 -20 9 -27 20 -7 11 -22 20 -35 20 -22 -1 -22 -1 3 -16 14 -8 18 -13
10 -11 -8 2 -57 13 -107 23 -51 10 -93 22 -93 27 0 4 -4 6 -9 3 -10 -6 -151
20 -291 53 -95 23 -110 25 -110 12 0 -16 107 -49 300 -90 285 -62 432 -99 444
-112 8 -9 7 -10 -5 -6 -13 4 -15 -1 -13 -23 3 -23 -2 -31 -29 -43 -53 -26
-157 -39 -258 -33 -52 3 -170 9 -264 14 -186 9 -331 36 -424 79 l-54 24 5 68
c7 89 32 141 81 164 47 22 48 42 2 107 -20 28 -35 62 -35 77 1 37 31 101 65
138 33 34 44 80 45 183 0 54 -3 71 -12 66 -32 -20 41 63 79 90 93 65 130 68
344 25 186 -37 373 -69 378 -64 2 2 -8 7 -23 11 -34 8 -33 26 2 151 25 91 27
111 27 278 -1 151 -4 192 -21 251 -18 63 -19 74 -7 98 7 14 18 26 22 26 5 0
19 11 32 25 13 13 29 25 35 25 6 0 17 7 24 15 17 20 123 20 180 0 23 -8 47
-12 53 -8 6 3 -4 -14 -22 -38 -38 -53 -34 -76 15 -85 49 -9 110 11 206 67 49
28 87 44 92 39 5 -5 -18 -58 -56 -127 -36 -65 -73 -134 -83 -153 -63 -129
-194 -446 -232 -563 -14 -42 -30 -77 -37 -77 -6 0 -4 -5 4 -10 21 -14 27 -12
33 8 6 21 102 253 126 307 10 22 34 78 54 125 49 117 170 367 208 429 18 28
37 51 44 51 14 0 42 -31 82 -90 17 -25 75 -96 128 -158 l98 -114 -7 -51 c-3
-29 -15 -101 -25 -162 -11 -60 -28 -182 -37 -270 -9 -88 -25 -194 -36 -235
-10 -41 -34 -135 -54 -209 -66 -256 -143 -670 -189 -1022 -19 -142 -19 -139 5
-139 15 0 20 7 21 28 l1 27 9 -30 c6 -24 7 -20 3 16 -14 135 131 964 228 1294
25 86 107 285 118 285 4 0 13 -7 20 -15 18 -22 26 -19 75 26 25 23 45 39 45
35 0 -3 17 3 37 14 74 39 161 17 203 -52 23 -38 27 -30 5 11 -8 16 -28 40 -45
55 -41 34 -123 37 -163 6 -41 -32 -41 -23 0 22 120 135 506 479 520 464 2 -2
-20 -66 -50 -142 -97 -246 -228 -669 -296 -954 -67 -279 -201 -991 -201 -1065
0 -15 6 -25 14 -25 10 0 17 16 21 47 37 266 160 916 216 1136 82 325 240 826
313 992 28 61 46 80 248 256 117 102 142 119 171 119 51 0 147 -55 229 -129
40 -37 85 -76 99 -87 15 -11 50 -48 78 -82 51 -61 78 -75 99 -49 6 6 22 50 37
97 30 92 181 471 265 665 55 127 175 371 192 393 15 17 2 28 -16 13 -26 -22
-193 -371 -294 -616 -87 -210 -118 -290 -188 -482 -9 -24 -19 -43 -24 -43 -9
0 -131 186 -255 390 -191 316 -257 400 -313 400 -34 0 -129 -44 -162 -74 -24
-22 -60 -40 -60 -31 0 3 9 25 21 50 25 53 86 111 285 270 310 248 654 626 695
764 14 48 1 71 -81 135 l-60 47 0 -176 0 -177 -71 -82 c-141 -161 -317 -331
-489 -469 -96 -77 -200 -162 -231 -189 l-57 -48 -98 0 c-132 0 -303 37 -288
61 3 5 16 9 30 9 17 0 30 10 44 33 16 27 211 217 223 217 2 0 23 18 47 40 24
22 48 40 55 40 6 0 33 23 60 50 27 28 54 50 61 50 12 0 43 27 85 76 27 31 113
110 199 184 29 25 66 56 81 70 53 46 58 50 64 50 8 0 56 42 125 110 36 35 68
63 73 62 4 -1 7 26 7 61 0 34 7 143 15 241 l14 180 104 105 c125 128 175 182
258 281 56 68 129 171 129 184 0 3 13 24 29 48 34 51 91 169 91 189 0 8 4 19
8 24 11 12 112 287 112 304 0 6 5 11 10 11 6 0 10 6 10 14 0 29 59 145 93 183
19 21 58 79 87 128 29 50 70 116 92 147 l38 57 62 -25 c130 -49 174 -160 120
-295 -6 -15 -25 -43 -43 -63 -17 -20 -30 -39 -27 -41 9 -9 77 61 97 100 17 31
21 35 21 17 0 -23 14 -30 25 -12 3 6 17 10 31 10 13 0 24 5 24 10 0 6 7 10 16
10 8 0 22 7 30 15 37 36 59 3 55 -81 -1 -28 -144 -198 -188 -224 -18 -10 -33
-24 -33 -30 0 -5 -4 -10 -9 -10 -6 0 -29 -13 -53 -28 -65 -43 -138 -62 -232
-61 -97 2 -141 10 -142 27 -1 6 -2 15 -3 20 -2 8 -31 -56 -31 -68 0 -5 26 -21
58 -37 52 -26 66 -28 167 -28 95 1 119 4 177 27 97 38 172 89 261 176 192 188
278 381 281 627 1 113 -1 124 -32 202 -18 44 -39 87 -47 93 -8 7 -12 16 -9 21
6 11 -19 12 -30 2 -11 -12 -39 -13 -75 -3 -38 10 -186 -17 -239 -44 -47 -25
-55 -12 -24 42 37 62 68 138 76 184 l7 38 81 -4 81 -3 -6 91 c-3 59 -12 109
-26 144 -40 99 -19 116 25 20 26 -56 29 -74 29 -165 0 -56 3 -99 7 -95 4 4 14
42 23 84 8 42 29 109 46 150 44 105 46 148 15 232 -15 38 -24 71 -22 73 2 2
17 -12 34 -32 l29 -36 5 25 c4 20 -5 35 -44 73 -44 43 -146 182 -177 240 -20
39 9 17 64 -48 66 -77 166 -162 177 -151 19 19 -23 156 -129 422 -136 340
-324 643 -519 836 -67 66 -159 124 -197 124 -8 0 -22 -20 -31 -43 -18 -49 -80
-127 -100 -127 -10 0 -10 11 1 53 20 75 12 207 -17 277 -33 78 -115 200 -210
310 -114 132 -178 190 -300 269 -135 89 -136 90 -149 151 -6 28 -16 60 -21 70
-13 25 -284 135 -409 167 -8 2 -12 6 -9 8 9 9 234 -53 329 -90 228 -90 454
-231 598 -374 54 -53 110 -112 125 -131 21 -26 17 -13 -18 55 -57 112 -112
186 -224 299 -209 212 -440 312 -862 372 -94 14 -215 17 -675 18 -308 1 -678
1 -822 -1z m1384 -449 c-3 -3 -12 -4 -19 -1 -8 3 -5 6 6 6 11 1 17 -2 13 -5z
m43 -89 c11 -10 20 -24 20 -30 0 -26 -26 -31 -110 -19 -47 6 -74 12 -60 13 24
2 24 2 5 13 -19 11 -19 11 0 19 15 6 10 8 -20 9 -31 1 -36 3 -20 10 11 4 53 7
92 6 54 -2 78 -7 93 -21z m-26 -71 c24 -9 19 -34 -6 -35 -22 -1 -22 -1 2 -10
18 -6 12 -7 -20 -3 -25 3 -64 12 -88 20 -23 8 -50 14 -58 14 -8 0 -12 5 -9 10
7 11 153 14 179 4z m528 -35 c146 -58 305 -142 374 -199 113 -92 200 -220 223
-328 16 -77 12 -95 -8 -37 -35 96 -63 138 -164 239 -115 115 -244 205 -432
303 -66 34 -114 63 -108 63 7 0 59 -18 115 -41z m334 -40 c121 -86 218 -186
282 -296 32 -53 67 -153 54 -153 -4 0 -25 28 -47 62 -75 117 -173 235 -269
324 -53 48 -96 92 -96 96 0 15 17 8 76 -33z m-943 -50 c39 -12 82 -23 95 -26
12 -3 22 -10 22 -15 0 -6 -7 -7 -16 -4 -9 3 -46 6 -82 6 -47 0 -63 3 -52 10
13 8 13 10 -2 10 -10 0 -32 9 -50 20 -29 18 -31 20 -10 20 12 0 55 -9 95 -21z
m-83 -9 c24 -15 7 -19 -20 -5 -15 8 -19 14 -10 14 8 1 22 -3 30 -9z m-50 -29
c77 -14 98 -22 155 -55 166 -96 191 -125 63 -71 -83 35 -108 43 -75 24 22 -13
22 -29 0 -29 -14 0 -14 -2 3 -21 l19 -21 -40 17 c-71 30 -71 28 -3 -12 81 -47
91 -55 50 -44 -21 6 -43 5 -71 -5 -44 -15 -63 -10 -167 38 -45 20 -112 78 -91
78 8 0 8 3 -2 9 -11 7 -5 11 23 16 l37 7 -29 18 c-44 27 -48 40 -13 40 17 0
36 7 43 15 7 7 20 12 28 10 8 -2 40 -8 70 -14z m335 -161 c3 -6 -1 -7 -9 -4
-18 7 -21 14 -7 14 6 0 13 -4 16 -10z m-507 -31 c97 -19 167 -52 158 -75 -3
-7 2 -20 10 -29 21 -21 20 -20 -122 26 -132 43 -219 78 -194 79 11 1 10 4 -5
16 -23 18 -19 17 153 -17z m-105 -42 c37 -16 66 -32 64 -33 -8 -8 -171 46
-186 60 -14 15 -13 16 19 10 19 -3 65 -20 103 -37z m-86 -23 c-3 -3 -12 -4
-19 -1 -8 3 -5 6 6 6 11 1 17 -2 13 -5z m-57 -29 c74 -16 152 -43 275 -97 65
-29 120 -62 65 -39 -14 5 -92 31 -175 56 -238 73 -293 93 -263 94 15 1 59 -6
98 -14z m191 -10 c34 -11 37 -14 13 -10 -18 2 -47 11 -65 19 -38 17 -15 13 52
-9z m84 -33 c-3 -3 -11 0 -18 7 -9 10 -8 11 6 5 10 -3 15 -9 12 -12z m1996
-429 c65 -81 156 -237 194 -331 38 -93 30 -97 -18 -7 -71 134 -137 239 -214
341 -40 54 -73 99 -73 101 0 15 64 -45 111 -104z m-1971 -137 c0 -2 -7 -7 -16
-10 -8 -3 -12 -2 -9 4 6 10 25 14 25 6z m-45 -16 c-3 -5 0 -10 7 -10 61 0 298
-23 318 -30 37 -14 311 -47 490 -60 199 -14 476 -40 520 -49 27 -5 36 -13 46
-42 6 -20 49 -110 95 -200 107 -213 104 -207 127 -259 25 -55 36 -96 62 -228
23 -121 23 -115 10 -107 -15 9 -12 -6 4 -19 8 -6 17 -31 20 -56 3 -25 3 -36 0
-25 -7 24 -24 44 -24 28 0 -7 5 -24 11 -40 6 -15 10 -62 10 -103 0 -41 6 -140
14 -220 7 -80 17 -192 20 -249 8 -128 -13 -372 -49 -571 -7 -41 -12 -78 -10
-81 2 -4 -5 -33 -16 -64 -11 -32 -20 -66 -20 -76 0 -9 -4 -19 -10 -21 -5 -1
-14 -27 -20 -57 -6 -30 -17 -62 -25 -71 -8 -9 -15 -22 -15 -28 0 -17 -70 -163
-86 -179 -8 -8 -14 -23 -14 -33 0 -10 -4 -21 -9 -24 -11 -7 -71 -130 -71 -145
0 -6 -5 -11 -11 -11 -5 0 -8 -4 -4 -9 3 -5 -1 -15 -8 -23 -7 -7 -18 -27 -25
-45 -6 -18 -31 -62 -56 -98 -25 -36 -46 -72 -46 -80 0 -8 -7 -15 -15 -15 -8 0
-15 -6 -15 -13 0 -7 -19 -36 -42 -65 -24 -28 -59 -72 -78 -97 -19 -26 -45 -52
-57 -58 -12 -7 -53 -42 -90 -78 -37 -36 -101 -87 -141 -114 -41 -26 -76 -54
-79 -61 -3 -8 -11 -14 -19 -14 -8 0 -14 -5 -14 -11 0 -5 -4 -8 -9 -5 -5 3 -19
-3 -32 -13 -24 -18 -151 -81 -164 -81 -4 0 -21 -6 -38 -14 -72 -30 -91 -37
-160 -51 -172 -36 -380 -7 -527 74 -30 17 -82 45 -114 62 -65 34 -119 70 -124
82 -2 4 -8 7 -14 7 -6 0 -27 12 -47 28 -20 15 -52 38 -73 52 -62 43 -198 162
-272 238 -86 89 -109 118 -167 202 -24 36 -47 67 -50 70 -5 5 -30 56 -63 133
-9 21 -16 45 -16 54 0 9 -5 33 -12 52 -28 87 -102 290 -120 330 -10 23 -17 50
-15 60 2 9 -4 32 -13 51 -9 19 -38 103 -64 185 -25 83 -51 164 -57 180 -6 17
-17 104 -24 195 -18 215 -8 379 43 665 6 33 16 94 22 135 7 41 13 82 14 90 7
39 204 107 384 131 80 11 393 8 440 -4 21 -5 22 -3 22 44 0 48 -35 139 -60
154 -13 8 -14 9 15 -75 14 -40 25 -83 24 -94 0 -12 -7 1 -15 28 -28 90 -85
160 -139 169 -16 2 -57 10 -90 17 -72 15 -234 7 -320 -15 -74 -19 -172 -64
-222 -102 -21 -15 -33 -21 -26 -13 7 10 13 72 15 175 3 139 5 163 22 185 30
39 125 116 191 157 63 38 269 143 280 143 4 0 21 6 38 13 92 39 256 86 307 88
19 1 59 -8 88 -19 44 -17 54 -18 59 -6 5 13 19 13 76 -3 11 -3 17 1 17 11 0
18 15 21 25 6 8 -14 52 -13 57 1 4 13 50 18 59 7 3 -4 41 3 85 16 43 14 80 25
82 25 2 1 0 -3 -3 -9z m1898 -280 c9 0 17 7 17 15 0 9 10 15 26 15 14 0 23 -4
19 -9 -3 -5 -1 -12 5 -16 5 -3 10 -15 10 -26 0 -15 -7 -19 -35 -19 -19 0 -35
-2 -35 -5 0 -3 9 -24 21 -46 l20 -40 -21 11 c-12 6 -24 19 -27 27 -6 15 -7 14
-13 -1 -6 -17 -7 -17 -23 -2 -11 12 -17 13 -17 5 0 -15 -52 36 -68 68 -18 34
-14 39 11 15 13 -12 26 -20 29 -17 3 3 11 -1 18 -10 21 -25 32 -17 17 13 -8
15 -18 38 -22 52 l-7 25 29 -27 c16 -16 37 -28 46 -28z m-207 -71 c25 -32 43
-59 39 -59 -3 0 2 -16 10 -37 23 -54 12 -50 -29 12 -32 49 -57 75 -41 43 14
-29 -44 47 -64 83 l-22 38 31 -10 c18 -7 49 -35 76 -70z m93 -29 c23 -33 38
-60 34 -60 -10 0 -49 43 -44 49 1 2 -1 7 -6 10 -15 11 -44 61 -35 61 5 0 28
-27 51 -60z m-72 -767 c-3 -10 -5 -4 -5 12 0 17 2 24 5 18 2 -7 2 -21 0 -30z
m303 -983 c0 -5 -5 -10 -11 -10 -5 0 -7 5 -4 10 3 6 8 10 11 10 2 0 4 -4 4
-10z m-3702 -212 c35 -61 57 -124 66 -188 5 -33 4 -41 -3 -30 -8 11 -11 11
-11 2 0 -7 -14 2 -30 20 -17 18 -42 44 -55 58 -32 32 -59 129 -39 137 8 3 14
12 14 20 0 10 6 13 16 9 12 -4 15 -2 10 9 -11 31 3 13 32 -37z m1212 -2817 c0
-6 24 -36 54 -69 99 -106 228 -152 430 -152 83 0 107 -3 103 -12 -3 -7 -37
-87 -75 -178 -38 -91 -80 -188 -95 -216 -37 -74 -157 -249 -214 -315 -26 -31
-99 -116 -162 -190 -63 -74 -118 -135 -122 -137 -8 -4 -52 179 -74 311 -26
152 -31 357 -11 468 10 52 22 111 27 132 l10 38 51 -46 c47 -42 193 -123 204
-112 3 2 -28 20 -68 39 -40 19 -98 57 -128 85 l-54 50 18 59 c34 109 90 254
98 254 4 0 8 -4 8 -9z m-295 -139 c15 -31 38 -95 52 -142 23 -78 26 -108 34
-350 4 -146 13 -285 19 -309 6 -24 9 -46 7 -48 -3 -2 -8 8 -11 23 -11 43 -194
470 -248 577 -27 54 -55 100 -64 104 -11 4 1 21 45 67 33 33 75 80 92 103 18
23 36 40 40 37 4 -2 20 -30 34 -62z m98 -189 c9 -35 17 -75 16 -90 -1 -23 -3
-21 -10 12 -5 22 -16 63 -24 91 -17 58 -19 72 -7 59 5 -6 16 -38 25 -72z
m-1289 -327 c39 -16 84 -69 125 -145 84 -159 118 -501 50 -518 -10 -3 -19 -9
-19 -14 0 -20 -80 -59 -120 -59 -64 0 -102 22 -193 112 l-85 83 -17 99 c-20
112 -16 233 10 305 42 119 150 178 249 137z m-299 -441 c9 -55 37 -162 61
-238 24 -75 44 -150 44 -166 l0 -28 -52 9 c-75 14 -175 5 -224 -20 -23 -12
-44 -18 -48 -15 -3 4 -6 -1 -6 -10 0 -11 -8 -17 -22 -16 -13 0 -17 3 -10 6 6
2 12 18 12 34 0 16 4 37 10 47 5 9 14 43 20 74 6 32 17 61 24 65 18 11 46 67
46 93 0 11 4 20 9 20 10 0 24 36 24 62 0 10 4 15 8 12 9 -5 18 11 23 38 1 7
10 26 20 41 10 15 16 30 13 34 -4 3 1 19 10 34 9 16 18 27 19 26 1 -1 10 -47
19 -102z m1597 -155 c21 -36 41 -75 44 -87 4 -15 -12 -58 -50 -133 -31 -60
-73 -151 -92 -202 -40 -104 -50 -120 -40 -68 3 19 10 80 16 135 16 156 63 426
73 422 6 -2 27 -32 49 -67z m-2072 -915 c0 -3 -12 -47 -26 -98 l-26 -93 -98
-13 c-127 -15 -204 -36 -259 -68 -40 -23 -42 -26 -27 -42 14 -13 18 -13 25 -3
5 8 12 14 17 14 5 0 20 5 34 10 34 14 174 15 191 2 8 -6 25 -11 38 -12 13 0
28 -5 34 -11 6 -6 -4 -8 -29 -5 -77 8 -258 11 -239 3 17 -6 15 -8 -10 -10 -16
-1 -41 -3 -55 -5 -41 -7 -44 -7 -64 2 -16 6 -18 4 -13 -9 5 -12 1 -17 -14 -17
-19 0 -19 1 -3 32 11 22 13 33 5 36 -20 7 39 71 99 107 85 52 193 103 305 146
102 39 115 43 115 34z m-112 -343 c15 -10 4 -43 -26 -81 -18 -23 -22 -23 -65
-13 -61 16 -119 15 -196 -3 -75 -18 -229 -92 -298 -144 -43 -32 -55 -36 -106
-35 -44 0 -60 5 -72 20 -13 17 -12 21 13 42 93 79 410 193 597 215 60 8 140 7
153 -1z"/>
<path d="M5448 9543 c7 -3 16 -2 19 1 4 3 -2 6 -13 5 -11 0 -14 -3 -6 -6z"/>
<path d="M5270 9190 c8 -5 20 -10 25 -10 6 0 3 5 -5 10 -8 5 -19 10 -25 10 -5
0 -3 -5 5 -10z"/>
<path d="M5705 7780 c-28 -4 -76 -15 -108 -24 -31 -9 -60 -16 -63 -15 -18 3
-66 -61 -79 -106 -19 -68 -22 -121 -8 -118 109 22 186 27 363 26 178 -1 221
-4 324 -26 224 -48 386 -154 495 -323 75 -117 73 -114 66 -79 -13 64 -80 214
-131 291 -97 147 -264 284 -408 334 -131 45 -310 61 -451 40z"/>
<path d="M5436 7691 c-35 -38 -56 -133 -40 -175 11 -28 24 -17 25 22 0 20 8
67 18 105 9 37 17 67 16 67 -1 0 -10 -9 -19 -19z"/>
<path d="M6761 7374 c0 -11 3 -14 6 -6 3 7 2 16 -1 19 -3 4 -6 -2 -5 -13z"/>
<path d="M5865 7186 c-27 -7 -68 -21 -90 -31 -49 -21 -175 -146 -175 -173 0
-11 -4 -22 -8 -24 -46 -19 -179 -318 -142 -318 6 0 10 9 10 20 0 59 81 208
162 297 169 184 450 222 656 87 57 -38 71 -31 20 9 -18 14 -48 39 -67 55 -19
17 -46 36 -60 42 -14 7 -39 19 -56 27 -41 21 -186 26 -250 9z"/>
<path d="M4004 7168 c-16 -9 -36 -17 -45 -17 -9 -1 -22 -8 -29 -16 -7 -8 -19
-15 -27 -15 -22 0 -62 -51 -69 -90 -4 -19 -12 -42 -19 -50 -7 -8 -18 -26 -25
-40 -8 -17 4 -9 41 27 141 135 327 157 511 61 109 -56 219 -174 284 -301 25
-50 43 -78 40 -62 -4 17 -27 71 -52 120 -24 50 -44 96 -44 102 0 17 -87 141
-118 169 -15 13 -32 24 -38 24 -6 0 -19 9 -30 21 -22 25 -74 53 -140 75 -60
20 -200 16 -240 -8z"/>
<path d="M5853 7056 c-91 -30 -152 -69 -225 -143 -112 -114 -179 -278 -177
-432 2 -124 14 -139 22 -26 15 237 114 397 303 487 79 38 96 43 179 46 50 2
117 -1 148 -8 182 -37 344 -196 387 -379 17 -72 9 -235 -14 -278 -22 -44 -108
-127 -175 -170 -66 -42 -202 -89 -301 -102 l-75 -10 75 5 c170 11 291 63 401
173 89 89 136 177 147 274 35 311 -200 571 -528 584 -80 3 -106 0 -167 -21z"/>
<path d="M4002 7024 c-161 -43 -296 -180 -338 -344 -21 -82 -15 -213 13 -290
46 -126 161 -263 266 -317 105 -53 293 -78 392 -53 18 5 -5 6 -55 3 -171 -9
-339 48 -446 152 -100 98 -139 234 -109 381 44 210 112 302 273 365 46 19 76
23 162 23 97 0 111 -3 184 -33 57 -25 96 -50 143 -94 119 -112 167 -207 189
-377 l14 -105 -5 106 c-8 192 -69 327 -202 449 -139 127 -320 178 -481 134z"/>
<path d="M5792 6866 c-56 -19 -89 -40 -136 -90 -95 -100 -132 -267 -86 -388
42 -112 156 -206 271 -223 59 -9 151 10 204 40 41 24 116 111 151 175 29 53
27 237 -3 302 -29 63 -97 134 -158 166 -61 31 -176 40 -243 18z m233 -121 c39
-38 27 -76 -30 -95 -77 -25 -133 35 -89 98 22 32 86 31 119 -3z m-219 -463
c87 -26 174 -6 236 55 l36 35 -21 -43 c-25 -51 -79 -109 -101 -109 -8 0 -18
-4 -21 -10 -12 -19 -101 -11 -157 15 -80 36 -124 93 -112 143 5 17 11 14 52
-27 29 -28 63 -51 88 -59z"/>
<path d="M4234 6841 c-16 -4 -54 -21 -83 -36 -244 -133 -218 -523 44 -641 73
-33 131 -39 203 -20 112 28 193 101 233 205 46 123 6 293 -92 389 -82 80 -217
126 -305 103z m254 -151 c17 -11 32 -24 32 -29 0 -5 3 -16 6 -24 9 -24 -31
-57 -70 -57 -39 0 -86 33 -86 61 0 25 43 69 67 69 10 0 33 -9 51 -20z m-201
-446 c-3 -3 -12 -4 -19 -1 -8 3 -5 6 6 6 11 1 17 -2 13 -5z m120 0 c-3 -3 -12
-4 -19 -1 -8 3 -5 6 6 6 11 1 17 -2 13 -5z"/>
<path d="M4825 6138 c-46 -52 -135 -203 -167 -288 -20 -51 -24 -150 -7 -183
18 -35 51 -67 69 -67 10 0 61 -22 115 -50 86 -44 105 -50 159 -50 63 0 70 3
186 68 38 22 68 32 98 32 54 0 78 12 97 50 18 35 20 108 3 147 -20 47 -65 83
-104 83 -27 0 -34 -4 -34 -20 0 -12 -7 -20 -17 -20 -17 -1 -17 -2 -1 -13 39
-30 5 -38 -166 -39 -173 -1 -202 5 -176 37 7 8 9 15 4 15 -19 0 110 60 130 60
23 0 60 20 39 20 -18 0 -16 30 2 44 13 10 12 15 -10 40 -14 16 -25 42 -25 58
0 15 -4 28 -10 28 -5 0 -10 8 -10 18 0 31 -67 82 -108 82 -12 0 -40 -23 -67
-52z"/>
<path d="M4378 6033 c7 -3 16 -2 19 1 4 3 -2 6 -13 5 -11 0 -14 -3 -6 -6z"/>
<path d="M5950 5636 l-55 -12 45 -12 c55 -15 135 -55 134 -68 0 -10 -115 -70
-221 -114 -40 -17 -130 -46 -200 -65 -362 -100 -759 -120 -1074 -54 -125 26
-326 92 -348 115 -12 13 -15 32 -13 80 l4 63 51 21 52 20 -105 -5 c-113 -6
-159 -17 -202 -47 -37 -26 -36 -47 1 -44 l29 2 -23 -28 c-24 -28 -51 -95 -42
-104 2 -3 17 16 31 41 16 26 34 45 44 45 23 0 68 -48 178 -190 294 -381 548
-503 932 -446 374 55 687 257 930 599 l82 116 34 -20 c19 -11 37 -26 40 -34 3
-8 10 -15 16 -15 22 0 -26 64 -70 93 -25 16 -36 26 -25 23 85 -30 102 -8 23
29 -60 28 -151 32 -248 11z m-90 -231 c0 -3 -9 -23 -20 -45 -44 -87 -188 -151
-234 -104 -15 14 -16 14 -16 -5 0 -54 -145 -119 -330 -147 -119 -17 -317 -18
-391 0 -71 16 -145 59 -155 88 l-7 23 -9 -24 c-8 -22 -12 -23 -58 -18 -63 8
-123 38 -153 79 -47 64 -44 67 47 42 332 -88 771 -68 1162 55 54 17 110 38
124 46 27 15 40 18 40 10z m-245 -384 c3 -5 2 -12 -3 -15 -5 -3 -9 1 -9 9 0
17 3 19 12 6z m-53 -41 c-38 -23 -42 -24 -42 -8 0 6 3 8 6 5 4 -3 16 0 28 8
11 8 25 15 31 15 5 0 -5 -9 -23 -20z m-64 -32 c-25 -16 -194 -66 -273 -82 -45
-8 -126 -17 -180 -19 -69 -3 -82 -2 -40 2 l60 8 -45 3 c-25 2 -54 2 -65 2 -16
-2 -17 0 -5 8 12 8 11 10 -7 10 -13 0 -23 5 -23 10 0 6 9 10 20 10 11 0 20 -4
20 -9 0 -5 20 -11 44 -12 35 -3 42 -1 38 11 -5 13 -3 13 11 1 10 -8 20 -11 23
-8 3 3 -7 12 -23 21 -19 11 -23 15 -10 16 9 0 17 5 17 10 0 7 6 7 19 0 11 -5
37 -9 58 -9 l38 2 -35 7 -35 7 40 3 c73 4 130 -2 137 -13 4 -7 10 -16 12 -22
3 -6 9 -4 14 4 5 7 14 11 20 7 18 -11 71 5 65 20 -6 16 1 18 27 4 13 -7 19 -6
23 5 4 8 19 13 37 13 21 -1 27 -4 18 -10z m-558 -16 c-23 -4 -24 -5 -5 -13 14
-5 15 -8 4 -8 -8 -1 -24 6 -35 14 -18 13 -16 14 21 13 28 0 33 -2 15 -6z m-26
-65 c17 -12 15 -14 -18 -15 -31 -1 -34 1 -24 13 16 18 20 18 42 2z"/>
<path d="M6900 8083 c0 -13 29 -38 35 -31 3 3 -4 13 -15 23 -11 10 -20 13 -20
8z"/>
<path d="M4798 2743 c7 -3 16 -2 19 1 4 3 -2 6 -13 5 -11 0 -14 -3 -6 -6z"/>
<path d="M4855 2730 c17 -4 44 -8 60 -8 25 0 24 2 -10 9 -51 10 -92 10 -50 -1z"/>
<path d="M6601 9931 c68 -69 130 -177 165 -286 22 -66 27 -109 34 -245 4 -91
12 -176 18 -190 10 -25 10 -24 30 20 11 25 26 80 33 123 30 190 -28 386 -154
524 -42 46 -118 97 -157 106 -21 5 -16 -3 31 -52z"/>
<path d="M6840 8953 c0 -5 11 -19 25 -31 14 -12 25 -26 25 -32 0 -5 31 -30 69
-55 126 -83 321 -314 452 -537 55 -93 155 -327 229 -538 40 -113 75 -212 78
-220 3 -8 9 12 13 45 19 153 -102 477 -261 695 -26 36 -93 133 -148 216 -83
124 -123 172 -217 263 -65 62 -113 116 -110 122 4 6 21 19 37 29 l30 18 -23
12 c-28 16 -199 27 -199 13z"/>
<path d="M7200 8936 c0 -3 25 -19 57 -37 31 -18 86 -60 122 -94 36 -34 89 -74
116 -90 28 -15 61 -35 75 -43 40 -23 -36 44 -100 88 -31 21 -62 46 -70 56 -23
28 61 -22 133 -80 54 -42 57 -44 27 -12 -48 51 -167 131 -247 167 -37 17 -76
35 -85 40 -19 10 -28 11 -28 5z"/>
<path d="M7675 8225 c38 -121 75 -339 76 -454 1 -76 3 -90 10 -66 22 67 27
132 18 205 -11 77 -66 259 -94 308 -9 15 -13 18 -10 7z"/>
<path d="M6595 3325 c64 -53 445 -245 484 -245 3 0 -79 42 -184 94 -104 52
-219 111 -255 131 -36 20 -56 29 -45 20z"/>
<path d="M7604 2742 c-86 -63 -214 -245 -320 -453 -98 -195 -242 -607 -303
-867 l-27 -113 -61 88 c-34 48 -89 124 -122 168 -110 145 -119 213 -66 500 36
197 56 375 37 345 -5 -8 -24 -89 -42 -180 -21 -110 -38 -169 -49 -178 -9 -7
-15 -18 -14 -23 2 -5 -1 -9 -5 -9 -5 0 -26 -16 -48 -36 -62 -56 -95 -74 -142
-74 -32 0 -49 6 -68 25 -14 14 -29 25 -34 25 -4 0 -20 14 -34 31 -14 17 -26
26 -26 20 0 -19 -20 -12 -21 7 0 15 -1 14 -8 -3 -11 -28 -21 39 -21 144 0 143
58 314 135 400 52 57 35 65 -21 10 -52 -51 -106 -155 -130 -249 -35 -138 -15
-354 47 -513 11 -26 19 -54 19 -61 0 -7 -42 -29 -92 -49 -51 -20 -163 -64
-248 -97 -167 -66 -294 -129 -370 -185 -49 -36 -90 -101 -90 -142 0 -36 39
-149 65 -187 21 -31 23 -40 13 -62 -11 -24 -16 -26 -58 -20 -25 3 -133 9 -241
12 -215 8 -205 10 -220 -55 -31 -130 -149 -880 -149 -947 0 -20 30 -17 31 4 0
9 2 28 5 42 2 14 12 95 23 180 11 85 27 208 37 272 l18 118 96 0 c98 0 382
-15 483 -26 67 -7 80 10 15 20 -87 12 -258 25 -420 32 -101 4 -168 11 -168 17
0 10 46 259 56 306 l5 24 173 -6 c95 -4 200 -10 234 -13 l62 -7 0 -53 c0 -69
23 -135 72 -209 36 -54 40 -67 42 -130 3 -81 36 -158 103 -235 21 -25 45 -63
52 -85 8 -22 29 -63 47 -91 35 -52 132 -151 146 -147 4 2 5 -4 2 -12 -5 -13
151 -15 1325 -15 1189 0 1367 3 1323 22 -4 1 -25 25 -47 52 -38 47 -150 138
-230 187 -22 14 -76 40 -120 59 -74 31 -89 34 -197 36 -153 3 -170 12 -86 48
120 51 230 51 377 1 156 -53 310 -154 429 -280 57 -61 70 -80 66 -100 l-4 -25
160 0 160 0 -6 33 c-3 17 -22 66 -42 106 -31 62 -45 80 -82 101 -62 36 -328
142 -343 137 -6 -2 6 -10 28 -17 55 -18 133 -58 158 -81 12 -10 27 -19 34 -19
13 0 34 -36 47 -77 6 -18 3 -23 -9 -23 -9 0 -19 -9 -22 -21 -4 -15 -12 -19
-32 -17 -19 2 -25 -1 -23 -12 2 -8 -32 19 -75 61 -167 161 -343 258 -537 296
-120 22 -203 10 -371 -58 -26 -10 -36 -9 -69 8 l-39 20 59 37 c96 61 274 145
344 163 36 9 93 16 128 16 34 0 62 3 62 6 0 15 -57 60 -105 84 -107 52 -152
62 -285 61 -114 0 -134 -3 -220 -33 -52 -18 -140 -55 -194 -82 l-99 -50 -79
78 c-43 42 -78 82 -78 88 0 6 64 103 141 216 271 391 391 581 376 595 -3 3 -8
-4 -12 -17 -6 -17 -9 -19 -17 -8 -6 10 -7 7 -3 -10 5 -16 4 -21 -4 -17 -6 4
-11 14 -11 22 0 9 -10 14 -29 14 -16 0 -32 6 -35 13 -5 9 -7 9 -12 0 -8 -18
-24 -16 -24 2 0 19 -38 20 -59 2 -17 -14 -100 -41 -107 -34 -2 2 4 12 14 23
49 56 47 61 -3 9 -57 -59 -211 -237 -353 -408 -40 -48 -77 -87 -81 -87 -5 0
-32 34 -61 76 l-53 76 12 69 c23 140 155 555 246 774 50 121 103 224 171 337
71 118 100 156 188 246 73 75 77 93 10 44z m-1046 -1006 c15 -8 48 -36 73 -63
59 -61 219 -274 213 -284 -2 -4 0 -9 6 -11 5 -1 39 -46 74 -98 43 -64 61 -99
55 -106 -7 -8 -4 -11 8 -10 10 0 17 -5 16 -11 -2 -7 2 -13 8 -13 5 0 7 -5 3
-12 -4 -7 -3 -8 4 -4 6 3 16 -3 22 -14 6 -11 7 -20 3 -20 -4 0 2 -7 13 -16 10
-8 14 -13 8 -10 -6 3 -11 -1 -11 -9 0 -9 7 -14 16 -13 17 3 18 -2 6 -42 -5
-19 -4 -21 4 -10 9 12 11 11 11 -7 0 -20 -5 -23 -35 -23 -28 0 -35 -4 -35 -20
0 -11 -4 -20 -10 -20 -5 0 -10 -18 -10 -40 0 -33 -3 -40 -20 -40 -13 0 -20 -7
-20 -20 0 -17 7 -20 40 -20 33 0 40 -3 40 -20 0 -18 -7 -20 -80 -20 -73 0 -80
-2 -80 -20 0 -17 -7 -20 -40 -20 -30 0 -40 -4 -40 -16 0 -13 -7 -15 -32 -10
-84 15 -168 18 -168 7 0 -14 -37 -15 -42 -1 -3 11 -102 -2 -183 -25 -27 -8
-90 -19 -140 -25 -89 -11 -149 -24 -193 -41 -38 -15 -213 -10 -242 6 -28 16
-54 20 -30 5 10 -6 11 -10 3 -10 -7 0 -18 9 -25 19 -9 15 -15 17 -25 9 -10 -8
-13 -6 -13 5 0 21 29 49 42 41 7 -4 8 -2 4 5 -10 15 50 40 264 111 96 31 234
78 305 104 72 25 164 55 205 65 l75 20 -155 -4 c-227 -5 -410 -28 -410 -51 0
-10 -13 -14 -43 -14 -23 0 -72 -9 -109 -19 -99 -29 -189 -36 -243 -20 -25 7
-45 18 -46 24 0 5 -4 1 -9 -10 -6 -15 -9 -5 -9 35 -1 103 37 134 265 215 278
98 328 117 385 146 95 48 87 61 -13 20 -51 -21 -194 -73 -317 -115 -124 -43
-243 -87 -265 -98 -33 -17 -38 -18 -27 -4 12 14 12 16 -2 10 -12 -4 -25 12
-51 65 -70 139 -43 189 164 299 52 27 147 70 210 95 63 25 180 71 260 102 80
32 161 64 180 71 47 18 154 18 188 0z m938 -187 c-33 -26 -40 -24 -14 6 11 13
25 22 30 19 5 -3 -2 -14 -16 -25z m278 -14 c-9 -14 -18 -25 -20 -25 -2 0 2 11
8 25 6 14 15 25 20 25 5 0 1 -11 -8 -25z m-406 -858 c17 -18 19 -24 7 -24 -8
0 -13 3 -10 5 3 3 -2 14 -12 24 -24 27 -10 22 15 -5z m-608 -75 c51 -25 52
-69 2 -142 -58 -86 -77 -91 -267 -85 -227 8 -388 24 -398 41 -9 16 -54 19 -59
4 -1 -5 -9 -6 -16 -2 -11 8 432 158 553 188 71 17 144 16 185 -4z m719 -25 c8
-10 7 -14 -2 -14 -8 0 -14 6 -14 14 0 7 1 13 2 13 2 0 8 -6 14 -13z m47 -39
c13 -16 14 -19 2 -10 -11 9 -18 10 -23 2 -3 -6 -11 -8 -16 -4 -6 4 -6 11 2 20
14 18 12 18 35 -8z m59 -39 c11 -16 1 -19 -13 -3 -7 8 -8 14 -3 14 5 0 13 -5
16 -11z m28 -34 c-3 -8 0 -15 6 -15 6 0 11 6 12 13 0 9 2 9 6 -1 2 -6 9 -10
13 -7 5 3 11 1 15 -5 4 -6 -7 -9 -27 -7 -26 2 -33 7 -34 24 -1 13 2 20 7 17 4
-2 6 -11 2 -19z m147 -77 c0 -6 3 -9 6 -5 4 3 23 -2 43 -13 70 -35 311 -128
351 -135 22 -4 42 -11 46 -16 3 -5 9 -7 14 -4 14 8 90 -14 90 -26 0 -5 21 -33
48 -61 l47 -51 -40 7 c-22 4 -41 12 -43 17 -2 5 -12 9 -23 9 -10 0 -19 7 -19
15 0 8 -8 15 -17 16 -27 0 -93 7 -140 14 -33 5 -43 11 -43 25 0 10 -9 22 -20
25 -11 3 -20 12 -20 18 0 9 -13 11 -40 9 -22 -2 -48 -1 -58 3 -9 5 -27 7 -39
6 -17 -2 -23 3 -23 17 0 11 -4 22 -10 24 -5 2 -11 15 -12 31 -2 28 -12 35 -23
17 -11 -18 -27 -11 -22 10 5 18 -7 27 -48 36 -35 8 -85 37 -85 49 0 13 7 12
40 -5 22 -11 40 -26 40 -32z m-95 22 c-3 -5 -10 -10 -16 -10 -5 0 -9 5 -9 10
0 6 7 10 16 10 8 0 12 -4 9 -10z"/>
<path d="M7925 300 c3 -5 11 -10 16 -10 6 0 7 5 4 10 -3 6 -11 10 -16 10 -6 0
-7 -4 -4 -10z"/>
<path d="M7928 263 c7 -3 16 -2 19 1 4 3 -2 6 -13 5 -11 0 -14 -3 -6 -6z"/>
<path d="M8024 1920 c5 -29 40 -131 60 -175 7 -16 21 -55 31 -85 18 -59 46
-122 51 -117 6 6 -86 264 -126 352 -5 11 -11 27 -14 35 -3 8 -4 4 -2 -10z"/>
<path d="M4440 1434 c0 -27 37 -81 73 -108 36 -26 117 -27 165 -2 45 23 37 29
-16 11 -74 -26 -153 5 -197 78 -19 32 -25 37 -25 21z"/>
<path d="M3008 903 c6 -2 18 -2 25 0 6 3 1 5 -13 5 -14 0 -19 -2 -12 -5z"/>
<path d="M3169 867 c7 -7 14 -8 21 -1 6 6 2 10 -12 11 -16 2 -18 -1 -9 -10z"/>
<path d="M3250 860 c-12 -8 -11 -10 8 -10 12 0 22 5 22 10 0 13 -11 13 -30 0z"/>
<path d="M8613 755 c0 -8 4 -12 9 -9 5 3 6 10 3 15 -9 13 -12 11 -12 -6z"/>
<path d="M8641 713 c5 -15 40 -60 77 -100 87 -96 142 -165 136 -174 -2 -4 7
-9 20 -11 22 -5 21 0 -21 51 -25 31 -63 75 -84 98 -21 23 -39 46 -39 52 0 5
-11 18 -25 29 -14 11 -25 24 -25 28 -1 11 -36 54 -44 54 -3 0 -1 -12 5 -27z"/>
<path d="M4283 619 c-47 -30 -41 -42 10 -19 23 11 55 20 70 20 35 0 103 -34
119 -60 20 -32 30 -23 13 10 -35 68 -144 93 -212 49z"/>
<path d="M8195 594 c-53 -11 -145 -37 -142 -40 2 -2 59 3 128 11 212 25 270
20 419 -38 151 -59 204 -76 186 -63 -30 24 -190 84 -293 111 -90 24 -231 32
-298 19z"/>
<path d="M4155 443 c26 -173 170 -260 271 -162 41 40 38 47 -7 20 -47 -29
-116 -28 -159 2 -37 24 -76 92 -85 150 -10 56 -29 47 -20 -10z"/>
<path d="M8368 483 c6 -2 18 -2 25 0 6 3 1 5 -13 5 -14 0 -19 -2 -12 -5z"/>
<path d="M8810 73 c0 -6 8 -17 18 -24 16 -13 16 -13 2 6 -8 11 -16 22 -17 24
-2 2 -3 0 -3 -6z"/>
</g>
</svg>
